<svg width="659.0900146484374px" height="409.76002197265626px" xmlns="http://www.w3.org/2000/svg" viewBox="-79.54500732421872 -129.88001098632813 659.0900146484374 409.76002197265626" style="background: rgba(0, 0, 0, 0);" preserveAspectRatio="xMidYMid"><filter id="editing-goldstamp"><feFlood flood-color="#000000" result="flood"></feFlood><feMorphology operator="dilate" radius="2" in="SourceGraphic" result="outline"></feMorphology><feComposite operator="in" in="flood" in2="outline" result="outline2"></feComposite><feGaussianBlur stdDeviation="4" in="SourceAlpha" result="blur"></feGaussianBlur><feSpecularLighting surfaceScale="2" specularConstant="0.7" specularExponent="10" lighting-color="#white" in="blur" result="specular"><fePointLight x="200" y="-1000" z="300"></fePointLight></feSpecularLighting><feComposite operator="in" in="specular" in2="SourceGraphic" result="specular2"></feComposite><feComposite in="SourceGraphic" in2="specular2" operator="arithmetic" k1="3" k2="2" k3="1" k4="0" result="specular3"></feComposite><feMerge><feMergeNode in="outline2"></feMergeNode><feMergeNode in="specular3"></feMergeNode></feMerge></filter><g filter="url(#editing-goldstamp)"><g transform="translate(15.820023655891418, 163.18500518798828)"><path d="M33.20-108.59L0.59-106.05L3.71-116.21L3.71-116.21Q3.91-116.41 6.74-116.70L6.74-116.70L6.74-116.70Q9.57-116.99 14.26-117.48L14.26-117.48L14.26-117.48Q18.95-117.97 24.80-118.55L24.80-118.55L24.80-118.55Q30.66-119.14 36.82-119.73L36.82-119.73L36.82-119.73Q42.97-120.31 48.93-120.90L48.93-120.90L48.93-120.90Q54.88-121.48 59.96-122.07L59.96-122.07L59.96-122.07Q59.96-122.07 61.72-122.07L61.72-122.07L61.72-122.07Q63.48-122.07 65.63-122.07L65.63-122.07L65.63-122.07Q67.77-122.07 69.73-122.07L69.73-122.07L69.73-122.07Q71.68-122.07 72.27-122.07L72.27-122.07L72.27-122.07Q76.95-122.07 78.71-120.31L78.71-120.31L78.71-120.31Q80.47-118.55 80.47-112.70L80.47-112.70L44.92-108.59L44.92-108.59Q44.53-96.29 45.31-82.81L45.31-82.81L45.31-82.81Q46.09-69.34 47.27-55.57L47.27-55.57L47.27-55.57Q48.44-41.80 49.51-28.32L49.51-28.32L49.51-28.32Q50.59-14.84 50.59-2.54L50.59-2.54L50.59-2.54Q50.59-0.78 49.51-0.10L49.51-0.10L49.51-0.10Q48.44 0.59 46.97 0.78L46.97 0.78L46.97 0.78Q45.51 0.98 43.95 0.68L43.95 0.68L43.95 0.68Q42.38 0.39 41.21 0L41.21 0L41.21 0Q40.63-2.54 40.04-8.79L40.04-8.79L40.04-8.79Q39.45-15.04 38.87-23.44L38.87-23.44L38.87-23.44Q38.28-31.84 37.70-41.60L37.70-41.60L37.70-41.60Q37.11-51.37 36.52-61.13L36.52-61.13L36.52-61.13Q35.94-70.90 35.35-79.79L35.35-79.79L35.35-79.79Q34.77-88.67 34.38-95.41L34.38-95.41L34.38-95.41Q33.98-102.15 33.69-105.86L33.69-105.86L33.69-105.86Q33.40-109.57 33.20-108.59L33.20-108.59ZM77.54-76.17L77.54-76.17L77.54-76.17Q79.88-77.15 81.64-76.56L81.64-76.56L81.64-76.56Q83.40-75.98 84.57-74.41L84.57-74.41L84.57-74.41Q85.74-72.85 86.33-70.80L86.33-70.80L86.33-70.80Q86.91-68.75 87.30-66.80L87.30-66.80L87.30-66.80Q89.84-71.09 94.63-73.73L94.63-73.73L94.63-73.73Q99.41-76.37 104.88-77.25L104.88-77.25L104.88-77.25Q110.35-78.13 115.82-77.64L115.82-77.64L115.82-77.64Q121.29-77.15 125.10-75.29L125.10-75.29L125.10-75.29Q128.91-73.44 130.47-70.21L130.47-70.21L130.47-70.21Q132.03-66.99 129.69-62.70L129.69-62.70L129.69-62.70Q124.61-65.63 119.04-67.38L119.04-67.38L119.04-67.38Q113.48-69.14 108.20-68.55L108.20-68.55L108.20-68.55Q102.93-67.97 98.44-64.55L98.44-64.55L98.44-64.55Q93.95-61.13 91.02-53.71L91.02-53.71L91.02-53.71Q88.09-46.29 87.40-34.08L87.40-34.08L87.40-34.08Q86.72-21.88 89.06-3.71L89.06-3.71L81.64-3.71L81.64-3.71Q81.64-3.71 81.35-6.93L81.35-6.93L81.35-6.93Q81.05-10.16 80.76-15.43L80.76-15.43L80.76-15.43Q80.47-20.70 79.98-27.15L79.98-27.15L79.98-27.15Q79.49-33.59 79.10-40.23L79.10-40.23L79.10-40.23Q78.71-46.88 78.42-53.03L78.42-53.03L78.42-53.03Q78.13-59.18 77.73-63.67L77.73-63.67L77.73-63.67Q77.73-64.26 77.64-66.02L77.64-66.02L77.64-66.02Q77.54-67.77 77.54-69.82L77.54-69.82L77.54-69.82Q77.54-71.88 77.54-73.63L77.54-73.63L77.54-73.63Q77.54-75.39 77.54-76.17ZM138.48-16.80L138.48-16.80L138.48-16.80Q138.48-27.93 144.63-33.01L144.63-33.01L144.63-33.01Q150.78-38.09 160.74-38.09L160.74-38.09L160.74-38.09Q164.65-38.09 168.07-37.89L168.07-37.89L168.07-37.89Q171.48-37.70 174.61-36.91L174.61-36.91L174.61-36.91Q177.73-36.13 180.76-34.57L180.76-34.57L180.76-34.57Q183.79-33.01 187.11-30.08L187.11-30.08L187.11-30.08Q187.11-30.66 187.21-32.52L187.21-32.52L187.21-32.52Q187.30-34.38 187.30-36.52L187.30-36.52L187.30-36.52Q187.30-38.67 187.30-40.53L187.30-40.53L187.30-40.53Q187.30-42.38 187.30-43.16L187.30-43.16L187.30-43.16Q187.11-46.68 187.11-52.25L187.11-52.25L187.11-52.25Q187.11-57.81 186.23-63.67L186.23-63.67L186.23-63.67Q185.35-69.53 182.71-74.80L182.71-74.80L182.71-74.80Q180.08-80.08 174.22-82.81L174.22-82.81L174.22-82.81Q170.12-82.81 166.60-81.45L166.60-81.45L166.60-81.45Q163.09-80.08 159.57-78.52L159.57-78.52L159.57-78.52Q156.05-76.95 152.54-75.68L152.54-75.68L152.54-75.68Q149.02-74.41 144.92-74.41L144.92-74.41L144.92-74.41Q144.92-79.30 147.95-82.52L147.95-82.52L147.95-82.52Q150.98-85.74 155.27-87.50L155.27-87.50L155.27-87.50Q159.57-89.26 164.26-89.84L164.26-89.84L164.26-89.84Q168.95-90.43 172.46-90.43L172.46-90.43L172.46-90.43Q175.98-89.84 179.00-89.06L179.00-89.06L179.00-89.06Q182.03-88.28 184.67-85.94L184.67-85.94L184.67-85.94Q187.30-83.59 189.55-78.81L189.55-78.81L189.55-78.81Q191.80-74.02 193.46-65.43L193.46-65.43L193.46-65.43Q195.12-56.84 196.39-43.65L196.39-43.65L196.39-43.65Q197.66-30.47 198.44-11.33L198.44-11.33L198.44-11.33Q198.83-8.79 196.78-6.93L196.78-6.93L196.78-6.93Q194.73-5.08 191.21-3.81L191.21-3.81L191.21-3.81Q187.70-2.54 183.30-1.66L183.30-1.66L183.30-1.66Q178.91-0.78 174.41-0.39L174.41-0.39L174.41-0.39Q169.92 0 165.82 0.20L165.82 0.20L165.82 0.20Q161.72 0.39 158.98 0.39L158.98 0.39L158.98 0.39Q155.47 0.39 151.86-0.78L151.86-0.78L151.86-0.78Q148.24-1.95 145.21-4.20L145.21-4.20L145.21-4.20Q142.19-6.45 140.33-9.67L140.33-9.67L140.33-9.67Q138.48-12.89 138.48-16.80ZM163.87-30.47L163.87-30.47L163.87-30.47Q154.10-27.73 150.20-23.93L150.20-23.93L150.20-23.93Q146.29-20.12 146.78-16.60L146.78-16.60L146.78-16.60Q147.27-13.09 151.37-10.25L151.37-10.25L151.37-10.25Q155.47-7.42 161.33-6.54L161.33-6.54L161.33-6.54Q167.19-5.66 174.02-7.52L174.02-7.52L174.02-7.52Q180.86-9.38 187.11-14.84L187.11-14.84L187.11-14.84Q184.77-20.51 182.42-23.54L182.42-23.54L182.42-23.54Q180.08-26.56 177.34-28.13L177.34-28.13L177.34-28.13Q174.61-29.69 171.29-30.08L171.29-30.08L171.29-30.08Q167.97-30.47 163.87-30.47ZM250.78 0.98L204.30-86.33L210.35-92.38L253.32-14.26L271.68-89.84L271.68-89.84Q273.05-89.26 274.61-88.96L274.61-88.96L274.61-88.96Q276.17-88.67 277.44-88.38L277.44-88.38L277.44-88.38Q278.71-88.09 279.49-87.70L279.49-87.70L279.49-87.70Q280.27-87.30 280.27-86.33L280.27-86.33L280.27-86.33Q277.73-73.83 275.49-62.89L275.49-62.89L275.49-62.89Q273.24-51.95 270.70-41.60L270.70-41.60L270.70-41.60Q268.16-31.25 265.23-20.80L265.23-20.80L265.23-20.80Q262.30-10.35 258.40 0.98L258.40 0.98L250.78 0.98ZM285.16-45.90L285.16-45.90L285.16-45.90Q285.16-51.76 287.70-58.89L287.70-58.89L287.70-58.89Q290.23-66.02 294.63-72.17L294.63-72.17L294.63-72.17Q299.02-78.32 304.59-82.52L304.59-82.52L304.59-82.52Q310.16-86.72 316.21-86.72L316.21-86.72L316.21-86.72Q319.53-86.72 322.75-85.35L322.75-85.35L322.75-85.35Q325.98-83.98 329.00-81.74L329.00-81.74L329.00-81.74Q332.03-79.49 334.47-76.66L334.47-76.66L334.47-76.66Q336.91-73.83 338.28-70.70L338.28-70.70L338.28-70.70Q339.65-67.58 339.75-64.65L339.75-64.65L339.75-64.65Q339.84-61.72 338.09-59.57L338.09-59.57L296.88-51.95L296.88-51.95Q296.09-51.76 295.51-50.10L295.51-50.10L295.51-50.10Q294.92-48.44 294.53-45.90L294.53-45.90L294.53-45.90Q294.14-43.36 293.85-40.33L293.85-40.33L293.85-40.33Q293.55-37.30 293.36-34.47L293.36-34.47L293.36-34.47Q293.16-31.64 293.16-29.39L293.16-29.39L293.16-29.39Q293.16-27.15 293.16-25.98L293.16-25.98L293.16-25.98Q293.16-20.51 295.80-17.09L295.80-17.09L295.80-17.09Q298.44-13.67 302.54-11.91L302.54-11.91L302.54-11.91Q306.64-10.16 311.82-9.57L311.82-9.57L311.82-9.57Q316.99-8.98 322.07-8.98L322.07-8.98L322.07-8.98Q327.15-8.98 331.64-9.38L331.64-9.38L331.64-9.38Q336.13-9.77 339.06-9.77L339.06-9.77L339.06-9.77Q339.06-8.98 338.48-8.01L338.48-8.01L338.48-8.01Q337.89-7.03 337.11-6.15L337.11-6.15L337.11-6.15Q336.33-5.27 335.55-4.59L335.55-4.59L335.55-4.59Q334.77-3.91 334.57-3.71L334.57-3.71L334.57-3.71Q333.01-3.32 329.79-2.64L329.79-2.64L329.79-2.64Q326.56-1.95 322.95-1.37L322.95-1.37L322.95-1.37Q319.34-0.78 316.21-0.39L316.21-0.39L316.21-0.39Q313.09 0 311.91 0L311.91 0L311.91 0Q305.86 1.17 301.37-0.20L301.37-0.20L301.37-0.20Q296.88-1.56 293.75-4.88L293.75-4.88L293.75-4.88Q290.63-8.20 288.67-12.99L288.67-12.99L288.67-12.99Q286.72-17.77 285.74-23.24L285.74-23.24L285.74-23.24Q284.77-28.71 284.67-34.57L284.67-34.57L284.67-34.57Q284.57-40.43 285.16-45.90ZM313.48-79.30L313.48-79.30L313.48-79.30Q311.72-79.30 308.89-77.44L308.89-77.44L308.89-77.44Q306.05-75.59 303.61-72.75L303.61-72.75L303.61-72.75Q301.17-69.92 299.51-66.70L299.51-66.70L299.51-66.70Q297.85-63.48 298.44-61.13L298.44-61.13L298.44-61.13Q303.52-60.55 308.98-61.33L308.98-61.33L308.98-61.33Q314.45-62.11 318.95-63.77L318.95-63.77L318.95-63.77Q323.44-65.43 326.37-67.68L326.37-67.68L326.37-67.68Q329.30-69.92 329.20-72.27L329.20-72.27L329.20-72.27Q329.10-74.61 325.49-76.46L325.49-76.46L325.49-76.46Q321.88-78.32 313.48-79.30ZM354.49-151.76L354.49-151.76L354.49-151.76Q357.23-151.37 359.28-150.29L359.28-150.29L359.28-150.29Q361.33-149.22 362.50-146.48L362.50-146.48L362.50-146.48Q362.50-142.77 362.79-136.23L362.79-136.23L362.79-136.23Q363.09-129.69 363.38-121.09L363.38-121.09L363.38-121.09Q363.67-112.50 364.06-102.54L364.06-102.54L364.06-102.54Q364.45-92.58 364.84-82.42L364.84-82.42L364.84-82.42Q365.23-72.27 365.53-62.30L365.53-62.30L365.53-62.30Q365.82-52.34 366.11-43.75L366.11-43.75L366.11-43.75Q366.41-35.16 366.60-28.52L366.60-28.52L366.60-28.52Q366.80-21.88 366.99-18.36L366.99-18.36L366.99-18.36Q366.99-17.97 366.89-16.99L366.89-16.99L366.89-16.99Q366.80-16.02 366.70-14.65L366.70-14.65L366.70-14.65Q366.60-13.28 366.50-12.01L366.50-12.01L366.50-12.01Q366.41-10.74 366.41-10.16L366.41-10.16L366.41-10.16Q366.21-8.98 366.21-7.32L366.21-7.32L366.21-7.32Q366.21-5.66 365.82-4.10L365.82-4.10L365.82-4.10Q365.43-2.54 364.55-1.27L364.55-1.27L364.55-1.27Q363.67 0 361.72 0.20L361.72 0.20L358.40-3.91L358.40-3.91Q358.20-4.10 357.91-11.23L357.91-11.23L357.91-11.23Q357.62-18.36 357.13-29.79L357.13-29.79L357.13-29.79Q356.64-41.21 356.25-55.57L356.25-55.57L356.25-55.57Q355.86-69.92 355.37-84.57L355.37-84.57L355.37-84.57Q354.88-99.22 354.49-112.70L354.49-112.70L354.49-112.70Q354.10-126.17 353.91-135.94L353.91-135.94L353.91-135.94Q353.91-136.72 354.00-139.06L354.00-139.06L354.00-139.06Q354.10-141.41 354.20-143.85L354.20-143.85L354.20-143.85Q354.30-146.29 354.39-148.54L354.39-148.54L354.39-148.54Q354.49-150.78 354.49-151.76ZM388.87 18.95L415.23-67.38L377.73-127.34L377.73-127.34Q380.86-128.52 383.79-127.54L383.79-127.54L383.79-127.54Q386.72-126.56 388.87-123.63L388.87-123.63L388.87-123.63Q390.04-122.07 392.38-118.55L392.38-118.55L392.38-118.55Q394.73-115.04 397.75-110.64L397.75-110.64L397.75-110.64Q400.78-106.25 404.00-101.27L404.00-101.27L404.00-101.27Q407.23-96.29 410.16-91.89L410.16-91.89L410.16-91.89Q413.09-87.50 415.43-83.98L415.43-83.98L415.43-83.98Q417.77-80.47 418.95-78.71L418.95-78.71L441.41-127.34L441.41-127.34Q446.88-128.71 448.93-127.73L448.93-127.73L448.93-127.73Q450.98-126.76 450.68-124.12L450.68-124.12L450.68-124.12Q450.39-121.48 448.24-117.48L448.24-117.48L448.24-117.48Q446.09-113.48 443.07-108.50L443.07-108.50L443.07-108.50Q440.04-103.52 436.82-98.14L436.82-98.14L436.82-98.14Q433.59-92.77 430.96-87.21L430.96-87.21L430.96-87.21Q428.32-81.64 426.95-76.66L426.95-76.66L426.95-76.66Q425.59-71.68 426.37-67.38L426.37-67.38L426.37-67.38Q430.08-60.74 435.64-53.32L435.64-53.32L435.64-53.32Q441.21-45.90 447.07-38.18L447.07-38.18L447.07-38.18Q452.93-30.47 458.40-22.66L458.40-22.66L458.40-22.66Q463.87-14.84 467.58-7.23L467.58-7.23L467.58-7.23Q467.77-7.03 467.77-6.54L467.77-6.54L467.77-6.54Q467.77-6.05 467.09-5.47L467.09-5.47L467.09-5.47Q466.41-4.88 464.84-4.30L464.84-4.30L464.84-4.30Q463.28-3.71 460.16-3.71L460.16-3.71L420.70-58.59L394.53 24.61L388.87 18.95Z" fill="#00af1d"></path></g></g><style>text {
  font-size: 64px;
  font-family: Arial Black;
  dominant-baseline: central;
  text-anchor: middle;
}</style></svg>